<?xml version="1.0" encoding="utf-8"?>
<!-- Generator: Adobe Illustrator 23.0.1, SVG Export Plug-In . SVG Version: 6.00 Build 0)  -->
<svg version="1.1" id="Layer_1" xmlns="http://www.w3.org/2000/svg" xmlns:xlink="http://www.w3.org/1999/xlink" x="0px" y="0px"
	 viewBox="0 0 128 128" style="enable-background:new 0 0 128 128;" xml:space="preserve">
<style type="text/css">
	.st0{fill:#33485D;}
	.st1{fill:#50BB86;}
	.st2{fill:none;stroke:#A01D1D;stroke-miterlimit:10;}
	.st3{fill:#5FCE8F;}
</style>
<path class="st0" d="M93.9,76.8H34.1c-2.2,0-4-1.8-4-4v0c0-2.2,1.8-4,4-4h59.9c2.2,0,4,1.8,4,4v0C97.9,75,96.1,76.8,93.9,76.8z"/>
<path class="st0" d="M93.9,92H34.1c-2.2,0-4-1.8-4-4v0c0-2.2,1.8-4,4-4h59.9c2.2,0,4,1.8,4,4v0C97.9,90.2,96.1,92,93.9,92z"/>
<path class="st0" d="M93.9,61.5H34.1c-2.2,0-4-1.8-4-4v0c0-2.2,1.8-4,4-4h59.9c2.2,0,4,1.8,4,4v0C97.9,59.7,96.1,61.5,93.9,61.5z"/>
<path class="st0" d="M93.9,44H34.1c-2.2,0-4-1.8-4-4v0c0-2.2,1.8-4,4-4h59.9c2.2,0,4,1.8,4,4v0C97.9,42.2,96.1,44,93.9,44z"/>
<g>
	<path class="st1" d="M104,16H24c-4.4,0-8,3.6-8,8v80c0,4.4,3.6,8,8,8h80c4.4,0,8-3.6,8-8V24C112,19.6,108.4,16,104,16z M103.3,55.7
		v45.6c0,1.1-0.9,2-2,2H29.5c-1.8,0-2.7-2.2-1.4-3.4l71.8-71.8c1.3-1.3,3.4-0.4,3.4,1.4V55.7z"/>
</g>
<path class="st2" d="M112,16"/>
<path class="st2" d="M16,112"/>
<g>
	<path class="st3" d="M66.5,61.5H34.1c-2.2,0-4-1.8-4-4v0c0-2.2,1.8-4,4-4h40.5L66.5,61.5z"/>
</g>
<g>
	<path class="st3" d="M51.2,76.8H34.1c-2.2,0-4-1.8-4-4v0c0-2.2,1.8-4,4-4h25.2L51.2,76.8z"/>
</g>
<g>
	<path class="st3" d="M36,92h-1.9c-2.2,0-4-1.8-4-4v0c0-2.2,1.8-4,4-4H44L36,92z"/>
</g>
<g>
	<path class="st3" d="M84,44h-50c-2.2,0-4-1.8-4-4v0c0-2.2,1.8-4,4-4h58L84,44z"/>
</g>
</svg>
